<?xml version="1.0" standalone="no"?>
<!DOCTYPE svg PUBLIC "-//W3C//DTD SVG 20010904//EN"
 "http://www.w3.org/TR/2001/REC-SVG-20010904/DTD/svg10.dtd">
<svg version="1.0" xmlns="http://www.w3.org/2000/svg"
 width="512.000000pt" height="512.000000pt" viewBox="0 0 512.000000 512.000000"
 preserveAspectRatio="xMidYMid meet">
<metadata>
Created by potrace 1.14, written by Peter Selinger 2001-2017
</metadata>
<g transform="translate(0.000000,512.000000) scale(0.100000,-0.100000)"
fill="#000000" stroke="none">
<path d="M860 4459 c-38 -15 -139 -119 -165 -169 -35 -70 -72 -169 -87 -235
-9 -42 -13 -146 -13 -350 l0 -290 27 -65 c71 -172 193 -320 315 -382 120 -61
287 -86 452 -67 107 13 222 82 331 202 66 72 145 225 159 307 7 36 16 85 21
110 6 25 12 92 13 150 5 149 -21 246 -86 321 -49 56 -115 116 -175 157 -73 49
-240 117 -314 127 -45 6 -47 7 -53 45 -8 46 -38 95 -78 124 -25 19 -44 21
-175 23 -83 1 -158 -2 -172 -8z m229 -383 c12 -49 50 -100 90 -120 14 -8 51
-19 81 -24 79 -15 186 -66 247 -118 l53 -46 0 -76 c0 -194 -54 -329 -163 -409
l-48 -36 -102 5 c-131 6 -169 24 -231 112 -74 103 -76 111 -76 323 1 217 11
313 41 383 20 47 23 50 59 50 36 0 38 -2 49 -44z"/>
<path d="M2147 4396 c-45 -17 -82 -49 -105 -91 -14 -26 -16 -99 -17 -595 -1
-311 2 -582 7 -603 5 -21 25 -56 45 -77 83 -92 227 -70 282 43 21 44 22 48 19
629 l-3 584 -25 37 c-46 67 -134 98 -203 73z"/>
<path d="M2979 4151 c-81 -5 -102 -10 -136 -33 -46 -30 -83 -96 -83 -148 0
-51 37 -118 82 -148 38 -25 46 -26 137 -22 53 2 182 5 286 5 l190 0 -1 -185
c-2 -319 -49 -519 -193 -825 -104 -221 -206 -338 -383 -441 -60 -34 -82 -53
-98 -84 -45 -87 -14 -193 69 -237 82 -43 145 -27 301 75 81 53 249 225 309
317 122 185 255 509 300 730 7 33 16 78 21 100 23 109 32 262 28 474 -5 258
-7 265 -86 349 -78 82 -81 82 -384 80 -145 -1 -306 -4 -359 -7z"/>
<path d="M4024 4150 c-47 -11 -92 -47 -114 -90 -20 -39 -20 -64 -20 -1427 0
-1330 1 -1390 19 -1429 47 -104 183 -136 267 -62 69 61 64 -57 64 1483 0 1381
0 1396 -20 1435 -35 68 -122 108 -196 90z"/>
<path d="M902 2579 c-109 -54 -130 -203 -40 -286 44 -41 65 -43 452 -43 l373
0 43 -46 c41 -45 98 -150 86 -161 -3 -3 -29 -16 -58 -28 -163 -70 -212 -89
-303 -120 -207 -70 -298 -126 -376 -231 -62 -85 -91 -184 -92 -317 0 -106 1
-108 41 -190 64 -127 176 -220 322 -267 80 -26 357 -40 418 -22 191 58 346 90
522 107 91 9 122 20 158 58 57 60 68 134 29 208 -30 56 -85 89 -148 89 -43 0
-303 -32 -367 -45 -62 -13 -122 -29 -202 -52 -73 -22 -98 -25 -185 -21 -115 6
-172 25 -211 71 -24 29 -26 37 -21 95 8 99 37 121 264 198 60 20 149 54 198
76 50 22 110 47 135 55 77 27 209 129 210 161 0 4 7 39 15 77 12 56 13 82 4
130 -16 86 -45 170 -85 240 -41 74 -169 214 -215 237 -99 47 -113 48 -529 48
-384 0 -396 -1 -438 -21z"/>
</g>
</svg>
